<svg xmlns="http://www.w3.org/2000/svg" viewBox="0 0 960 400" width="960" height="400">
  <rect width="960" height="400" fill="#d6e6f2"/>
  <circle cx="840" cy="70" r="36" fill="#f4d06f"/>
  <g fill="#ffffff" opacity="0.85">
    <ellipse cx="180" cy="70" rx="58" ry="16"/>
    <ellipse cx="235" cy="56" rx="45" ry="14"/>
    <ellipse cx="560" cy="90" rx="60" ry="15"/>
    <ellipse cx="615" cy="78" rx="40" ry="12"/>
  </g>
  <path d="M330 110 q6 -7 12 0 q6 -7 12 0" fill="none" stroke="#4a5a6a" stroke-width="1.6"/>
  <rect y="220" width="960" height="180" fill="#93b077"/>
  <g>
    <rect x="70" y="120" width="180" height="100" fill="#f2c94c"/>
    <polygon points="55,120 265,120 160,55" fill="#7a4a3a"/>
    <rect x="95" y="145" width="26" height="24" fill="#ffffff" stroke="#7a4a3a" stroke-width="2"/>
    <rect x="195" y="145" width="26" height="24" fill="#ffffff" stroke="#7a4a3a" stroke-width="2"/>
    <rect x="145" y="170" width="30" height="50" fill="#6b4a35"/>
  </g>
  <path d="M250 200 q70 45 150 50" fill="none" stroke="#4a5a6a" stroke-width="4"/>
  <g>
    <rect x="430" y="250" width="340" height="115" rx="14" fill="#6fa3cc"/>
    <rect x="446" y="264" width="308" height="87" rx="9" fill="#8fb8d8"/>
    <path d="M475 288 q15 -5 30 0 t30 0 t30 0 t30 0 t30 0" fill="none" stroke="#b9d4e8" stroke-width="2"/>
    <path d="M505 316 q15 -5 30 0 t30 0 t30 0 t30 0" fill="none" stroke="#b9d4e8" stroke-width="2"/>
    <path d="M480 336 q15 -5 30 0 t30 0 t30 0" fill="none" stroke="#b9d4e8" stroke-width="2"/>
  </g>
  <circle cx="560" cy="300" r="7" fill="#e8b88a"/>
  <circle cx="610" cy="322" r="7" fill="#e8b88a"/>
  <g>
    <rect x="820" y="300" width="44" height="30" fill="#7fa361"/>
    <polygon points="820,306 798,294 798,306 820,318" fill="#7fa361"/>
    <path d="M864 306 q18 8 0 22" fill="none" stroke="#7fa361" stroke-width="5"/>
    <circle cx="792" cy="298" r="3" fill="#8fb8d8"/>
    <circle cx="786" cy="308" r="3" fill="#8fb8d8"/>
    <circle cx="790" cy="318" r="3" fill="#8fb8d8"/>
  </g>
  <g>
    <circle cx="350" cy="232" r="22" fill="#5d8a4a"/>
    <rect x="347" y="248" width="7" height="18" fill="#6b4a35"/>
  </g>
  <g>
    <circle cx="800" cy="240" r="18" fill="#6a9455"/>
    <rect x="797" y="252" width="7" height="16" fill="#6b4a35"/>
  </g>
</svg>
