<svg xmlns="http://www.w3.org/2000/svg" viewBox="0 0 960 400" width="960" height="400">
  <rect width="960" height="400" fill="#e9e4d8"/>
  <path d="M0 110 L480 34 L960 110" fill="none" stroke="#7a4a3a" stroke-width="7"/>
  <path d="M90 110 L480 47 L870 110" fill="none" stroke="#a9846b" stroke-width="3"/>
  <g stroke="#a9846b" stroke-width="3">
    <line x1="140" y1="110" x2="140" y2="97"/>
    <line x1="240" y1="110" x2="240" y2="84"/>
    <line x1="340" y1="110" x2="340" y2="71"/>
    <line x1="480" y1="110" x2="480" y2="34"/>
    <line x1="620" y1="110" x2="620" y2="71"/>
    <line x1="720" y1="110" x2="720" y2="84"/>
    <line x1="820" y1="110" x2="820" y2="97"/>
  </g>
  <rect x="120" y="130" width="90" height="70" fill="#d6e6f2" stroke="#c8bfa8" stroke-width="3"/>
  <rect x="435" y="130" width="90" height="70" fill="#d6e6f2" stroke="#c8bfa8" stroke-width="3"/>
  <rect x="750" y="130" width="90" height="70" fill="#d6e6f2" stroke="#c8bfa8" stroke-width="3"/>
  <rect y="250" width="960" height="150" fill="#cfc4a5"/>
  <g>
    <rect x="180" y="268" width="600" height="104" rx="10" fill="#6fa3cc"/>
    <rect x="196" y="282" width="568" height="76" rx="6" fill="#8fb8d8"/>
  </g>
  <g>
    <line x1="196" y1="308" x2="764" y2="308" stroke="#b9d4e8" stroke-width="2"/>
    <circle cx="230" cy="308" r="5" fill="#b3574d"/>
    <circle cx="290" cy="308" r="5" fill="#ffffff"/>
    <circle cx="350" cy="308" r="5" fill="#b3574d"/>
    <circle cx="410" cy="308" r="5" fill="#ffffff"/>
    <circle cx="470" cy="308" r="5" fill="#b3574d"/>
    <circle cx="530" cy="308" r="5" fill="#ffffff"/>
    <circle cx="590" cy="308" r="5" fill="#b3574d"/>
    <circle cx="650" cy="308" r="5" fill="#ffffff"/>
    <circle cx="710" cy="308" r="5" fill="#b3574d"/>
    <line x1="196" y1="336" x2="764" y2="336" stroke="#b9d4e8" stroke-width="2"/>
    <circle cx="260" cy="336" r="5" fill="#ffffff"/>
    <circle cx="320" cy="336" r="5" fill="#b3574d"/>
    <circle cx="380" cy="336" r="5" fill="#ffffff"/>
    <circle cx="440" cy="336" r="5" fill="#b3574d"/>
    <circle cx="500" cy="336" r="5" fill="#ffffff"/>
    <circle cx="560" cy="336" r="5" fill="#b3574d"/>
    <circle cx="620" cy="336" r="5" fill="#ffffff"/>
    <circle cx="680" cy="336" r="5" fill="#b3574d"/>
  </g>
  <g>
    <rect x="820" y="220" width="8" height="120" fill="#5a6a7a"/>
    <rect x="770" y="238" width="90" height="10" rx="3" fill="#f2c94c"/>
    <rect x="826" y="220" width="20" height="20" fill="#5a6a7a"/>
  </g>
  <g stroke="#5a6a7a" stroke-width="4" fill="none">
    <line x1="150" y1="268" x2="150" y2="330"/>
    <line x1="170" y1="268" x2="170" y2="330"/>
    <line x1="150" y1="284" x2="170" y2="284"/>
    <line x1="150" y1="300" x2="170" y2="300"/>
    <line x1="150" y1="316" x2="170" y2="316"/>
  </g>
  <g>
    <rect x="60" y="330" width="60" height="34" fill="#b3574d"/>
    <polygon points="60,330 120,330 90,306" fill="#5a4636"/>
    <rect x="78" y="344" width="24" height="20" fill="#4a382a"/>
  </g>
</svg>
